# xmcd
#
# Track frame offsets:
#   150
#   16002
#   30757
#   44237
#   57535
#   71815
#   87567
#   106622
#   119827
#   135175
#   148012
#   162995
#   177527
#   191020
#   203840
#   217547
#
# Disc length: 3099 seconds
#
# Revision: 0
# Processed by: cddbd v1.4PL0 Copyright (c) Steve Scherf et al.
# Submitted via: uFREEDB ActiveX Control 1.5
#
DISCID=e40c1910
DTITLE=alma serrana - vamo namorá
DYEAR=1900
DGENRE=UnClassifiable
TTITLE0=balangando as teta
TTITLE1=chico porteiro
TTITLE2=contra-senso
TTITLE3=baile de quatro em "cruzo"
TTITLE4=arraia do pau fincado
TTITLE5=vou descer a serra
TTITLE6=seu amor ainda é tudo
TTITLE7=não aguento mais sofrer
TTITLE8=jeitinho gorsso 
TTITLE9=vamo namorá
TTITLE10=partirei chorando
TTITLE11=dê balanço na vaneira
TTITLE12=dia de bailanta
TTITLE13=andando na contramão
TTITLE14=madrugando
TTITLE15=madrugada
EXTD=
EXTT0=
EXTT1=
EXTT2=
EXTT3=
EXTT4=
EXTT5=
EXTT6=
EXTT7=
EXTT8=
EXTT9=
EXTT10=
EXTT11=
EXTT12=
EXTT13=
EXTT14=
EXTT15=
PLAYORDER=
